<svg preserveAspectRatio="none" width="100%" height="100%" overflow="visible" style="display: block;" viewBox="0 0 30 30" fill="none" xmlns="http://www.w3.org/2000/svg">
<g id="Group 73">
<foreignObject x="-8" y="-8" width="46" height="46"><div xmlns="http://www.w3.org/1999/xhtml" style="backdrop-filter:blur(4px);clip-path:url(#bgblur_0_0_7_clip_path);height:100%;width:100%"></div></foreignObject><circle id="Ellipse 25" data-figma-bg-blur-radius="8" cx="15" cy="15" r="15" fill="var(--fill-0, white)" fill-opacity="0.3"/>
<path id="Line 48" d="M21.3536 15.3536C21.5488 15.1583 21.5488 14.8417 21.3536 14.6464L18.1716 11.4645C17.9763 11.2692 17.6597 11.2692 17.4645 11.4645C17.2692 11.6597 17.2692 11.9763 17.4645 12.1716L20.2929 15L17.4645 17.8284C17.2692 18.0237 17.2692 18.3403 17.4645 18.5355C17.6597 18.7308 17.9763 18.7308 18.1716 18.5355L21.3536 15.3536ZM9 15L9 15.5L21 15.5L21 15L21 14.5L9 14.5L9 15Z" fill="var(--stroke-0, white)"/>
</g>
<defs>
<clipPath id="bgblur_0_0_7_clip_path" transform="translate(8 8)"><circle cx="15" cy="15" r="15"/>
</clipPath></defs>
</svg>
