<svg width="25" height="25" viewBox="0 0 25 25" fill="none" xmlns="http://www.w3.org/2000/svg">
<path d="M24.5 12.5C24.5 19.1274 19.1274 24.5 12.5 24.5C5.87258 24.5 0.5 19.1274 0.499999 12.5C0.5 5.87258 5.87258 0.5 12.5 0.500001C19.1274 0.500002 24.5 5.87259 24.5 12.5Z" stroke="white"/>
<path d="M17.5 10C17.7761 10 18 10.2239 18 10.5C18 10.7761 17.7761 11 17.5 11L7.5 11C7.22386 11 7 10.7761 7 10.5C7 10.2239 7.22386 10 7.5 10L17.5 10Z" fill="white"/>
<path d="M17.5 14C17.7761 14 18 14.2239 18 14.5C18 14.7761 17.7761 15 17.5 15L7.5 15C7.22386 15 7 14.7761 7 14.5C7 14.2239 7.22386 14 7.5 14L17.5 14Z" fill="white"/>
</svg>
