<svg width="41" height="22" viewBox="0 0 41 22" fill="none" xmlns="http://www.w3.org/2000/svg">
<path d="M31.5167 21.0744L31.372 18.2981C34.4464 17.0584 39.0039 21.0919 40.5049 18.2981C41.3188 16.7616 40.0709 13.2868 32.5294 16.133C30.0337 14.7536 29.2379 11.0169 33.5603 9.42798C37.2315 9.42798 40.1613 9.95181 40.1613 9.95181L40.3241 13.2868C38.5156 11.6804 31.7156 9.18353 30.8656 12.0122C30.3954 13.5837 33.1262 13.1646 35.6581 13.7059C40.306 14.7186 41.2283 16.2552 40.9571 18.0537C40.722 19.5204 39.7454 21.2839 37.9007 21.9998C36.7432 21.5633 32.6922 20.0966 31.5167 21.0744Z" fill="black"/>
<path d="M28.5845 9.42798H30.4876L26.663 21.9998H23.6145C23.6145 21.9998 26.6446 16.127 28.9541 9.6435H28.7323C27.6423 12.535 25.7762 16.8095 24.0949 17.923C20.2149 17.923 22.5059 14.2771 19.9747 9.42798H23.208C23.208 9.42798 24.1873 10.308 23.7069 12.3734C23.208 14.5824 21.4713 16.7556 22.5244 17.2585C23.7438 17.8332 26.8663 13.6306 28.5845 9.42798Z" fill="black"/>
<path d="M16.5048 15.8276H19.9745C19.8364 19.3771 17.9548 21.9998 14.7095 21.9998C11.8094 21.9998 9.46167 19.482 9.46167 15.7227C9.46167 11.9633 11.8094 9.42798 14.7095 9.42798C17.247 9.42798 19.3531 11.3514 19.8537 14.3238H16.5048C17.903 12.1557 17.7476 10.4421 16.6601 10.0574C15.1755 9.55038 13.5356 11.4038 12.4653 14.5337C11.3951 17.6635 11.3088 20.7934 12.7761 21.3879C14.416 22.0698 17.247 20.059 16.5048 15.8276Z" fill="black"/>
<path d="M2.37933 21.8228H0.594833L0 9.42798H3.02993C3.02993 9.42798 2.04474 15.9264 2.02615 21.6103H2.19344C2.36074 19.3084 3.64335 18.848 4.70289 19.0605C6.78481 19.5032 8.08601 19.9635 9.35003 19.273L9.46156 21.5395C8.99684 21.8759 8.49495 21.9998 7.97447 21.9998C7.15658 21.9998 6.28292 21.6811 5.48361 21.327C3.97794 20.6541 2.52804 19.4678 2.37933 21.8228Z" fill="black"/>
<path d="M38.6207 2.63957L37.0874 0.0454102H37.7053L38.901 2.05802L39.9938 0.0454102H40.5773L39.1585 2.63957V4.03643H38.6207V2.63957Z" fill="black"/>
<path d="M33.2537 0.0454102H34.5695C35.0539 0.0454102 35.4029 0.140434 35.6165 0.330483C35.8339 0.51673 35.9426 0.777097 35.9426 1.11158C35.9426 1.49548 35.7748 1.77675 35.4392 1.9554V1.9668C35.8511 2.13404 36.057 2.44952 36.057 2.91324C36.057 3.27433 35.9483 3.5518 35.7309 3.74565C35.5173 3.9395 35.1684 4.03643 34.684 4.03643H33.2537V0.0454102ZM33.7915 0.535735V1.73874H34.5409C34.8537 1.73874 35.0711 1.68743 35.1931 1.5848C35.319 1.48218 35.3819 1.33394 35.3819 1.14009C35.3819 0.94624 35.319 0.798002 35.1931 0.695376C35.0711 0.588949 34.8537 0.535735 34.5409 0.535735H33.7915ZM33.7915 2.22907V3.5461H34.6554C34.9681 3.5461 35.1855 3.49289 35.3076 3.38646C35.4334 3.27623 35.4964 3.10899 35.4964 2.88473C35.4964 2.66428 35.4334 2.50084 35.3076 2.39441C35.1855 2.28418 34.9681 2.22907 34.6554 2.22907H33.7915Z" fill="black"/>
<path d="M26.2181 0.0454102H27.5054C28.0966 0.0454102 28.5486 0.20315 28.8613 0.518631C29.1779 0.83031 29.3362 1.28072 29.3362 1.86987V2.15495C29.3362 2.7669 29.1779 3.23442 28.8613 3.5575C28.5448 3.87679 28.0928 4.03643 27.5054 4.03643H26.2181V0.0454102ZM27.4768 3.5461C27.904 3.5461 28.2263 3.43397 28.4437 3.20972C28.6649 2.98166 28.7755 2.63007 28.7755 2.15495V1.86987C28.7755 1.42896 28.6649 1.09638 28.4437 0.872121C28.2225 0.647864 27.9002 0.535735 27.4768 0.535735H26.7559V3.5461H27.4768Z" fill="black"/>
<path d="M22.1589 0.0454102H24.6477V0.535735H22.6967V1.73874H24.3044V2.22907H22.6967V3.5461H24.6477V4.03643H22.1589V0.0454102Z" fill="black"/>
<path d="M18.9146 0.535735H17.6388V0.0454102H20.7282V0.535735H19.4524V4.03643H18.9146V0.535735Z" fill="black"/>
<path d="M14.92 0.0454102H15.5493L17.0082 4.03643H16.4246L16.047 2.94175H14.3936L14.0103 4.03643H13.4611L14.92 0.0454102ZM15.8754 2.45142L15.2346 0.587048H15.2232L14.5653 2.45142H15.8754Z" fill="black"/>
<path d="M9.68884 0.0454102H12.1776V0.535735H10.2266V1.73874H11.8343V2.22907H10.2266V3.5461H12.1776V4.03643H9.68884V0.0454102Z" fill="black"/>
<path d="M5.28271 0.0454102H6.6272C7.12303 0.0454102 7.48919 0.155638 7.72567 0.376094C7.96596 0.592749 8.0861 0.887325 8.0861 1.25982C8.0861 1.52589 8.02317 1.75395 7.8973 1.94399C7.77525 2.13404 7.58645 2.27468 7.3309 2.3659L8.20053 4.03643H7.59408L6.80455 2.46853C6.77404 2.47233 6.74353 2.47423 6.71302 2.47423C6.68632 2.47423 6.65771 2.47423 6.6272 2.47423H5.82051V4.03643H5.28271V0.0454102ZM6.59859 1.9839C6.93042 1.9839 7.1669 1.92119 7.30802 1.79576C7.45296 1.67032 7.52543 1.49168 7.52543 1.25982C7.52543 1.03176 7.45296 0.855016 7.30802 0.729584C7.16308 0.600352 6.92661 0.535735 6.59859 0.535735H5.82051V1.9839H6.59859Z" fill="black"/>
<path d="M2.13673 4.08224C1.885 4.08224 1.65615 4.04043 1.45018 3.95681C1.24422 3.87318 1.06686 3.74965 0.918113 3.58621C0.769362 3.42277 0.653031 3.22132 0.56912 2.98186C0.489023 2.7386 0.448975 2.46113 0.448975 2.14945V1.87578C0.448975 1.5793 0.489023 1.31513 0.56912 1.08328C0.653031 0.851416 0.769362 0.655666 0.918113 0.496026C1.06686 0.332584 1.24422 0.209053 1.45018 0.125432C1.65996 0.0418106 1.88881 0 2.13673 0C2.36558 0 2.56963 0.0323081 2.7489 0.0969244C2.93197 0.161541 3.08835 0.250864 3.21803 0.364893C3.35153 0.475121 3.45832 0.606254 3.53842 0.758293C3.62233 0.90653 3.67954 1.06807 3.71006 1.24292H3.13794C3.10742 1.13649 3.06356 1.03766 3.00635 0.94644C2.95295 0.855217 2.8843 0.775397 2.80039 0.70698C2.72029 0.638562 2.62303 0.585349 2.50861 0.547339C2.398 0.509329 2.27404 0.490324 2.13673 0.490324C1.97653 0.490324 1.82588 0.520732 1.68475 0.581548C1.54744 0.638562 1.42921 0.725985 1.33004 0.843815C1.23087 0.961644 1.15268 1.10608 1.09547 1.27712C1.03826 1.44817 1.00965 1.64772 1.00965 1.87578V2.14945C1.00965 2.38891 1.03826 2.59986 1.09547 2.78231C1.15268 2.96095 1.23087 3.11109 1.33004 3.23272C1.43302 3.35055 1.55317 3.43987 1.69047 3.50069C1.82778 3.56151 1.97653 3.59191 2.13673 3.59191C2.41516 3.59191 2.63638 3.51779 2.80039 3.36956C2.96821 3.21752 3.08073 3.02177 3.13794 2.78231H3.71006C3.67954 2.97236 3.62233 3.1472 3.53842 3.30684C3.45832 3.46268 3.35153 3.59952 3.21803 3.71735C3.08835 3.83137 2.93197 3.9207 2.7489 3.98531C2.56963 4.04993 2.36558 4.08224 2.13673 4.08224Z" fill="black"/>
</svg>
