<svg width="109" height="8" viewBox="0 0 109 8" fill="none" xmlns="http://www.w3.org/2000/svg">
<path d="M108.218 7.61654H106.837L105.909 5.74996H101.15L100.233 7.61654H98.9277L102.769 0.1073H104.387L108.218 7.61654ZM103.524 0.922589L101.658 4.73085H105.412L103.524 0.922589Z" fill="white"/>
<path d="M92.6989 3.80817C93.2456 3.85108 93.7239 3.95478 94.1339 4.11927C94.5512 4.28376 94.8748 4.47685 95.105 4.69855C95.3352 4.9131 95.5366 5.16341 95.7093 5.44948C95.8891 5.72839 96.0222 5.993 96.1085 6.24331C96.202 6.48647 96.3099 6.74035 96.4322 7.00496C96.5617 7.26957 96.6948 7.4734 96.8314 7.61643H95.4287C95.3352 7.52346 95.2345 7.33751 95.1266 7.0586C95.0187 6.77253 94.8964 6.48647 94.7598 6.2004C94.6303 5.90718 94.454 5.61754 94.2311 5.33147C94.0153 5.03826 93.6987 4.79868 93.2815 4.61273C92.8643 4.42679 92.368 4.33382 91.7925 4.33382H90.9401V7.61643H89.6885V0.107188H90.9401V3.31471H91.4688C91.8213 3.31471 92.1198 3.27537 92.3644 3.1967C92.609 3.11088 92.7924 3.00361 92.9147 2.87488C93.0442 2.739 93.1485 2.58524 93.2276 2.4136C93.3139 2.23481 93.3858 2.05244 93.4434 1.8665C93.5009 1.68055 93.5621 1.49461 93.6268 1.30867C93.6988 1.12272 93.7995 0.951084 93.9289 0.793747C94.0656 0.629259 94.2346 0.489802 94.4361 0.375375C94.6447 0.260949 94.9252 0.178704 95.2777 0.128643C95.6373 0.0785813 96.0617 0.0714294 96.5509 0.107188V1.1263C96.1337 1.09054 95.7884 1.10842 95.5151 1.17994C95.2489 1.2443 95.0511 1.348 94.9216 1.49103C94.7993 1.62692 94.6986 1.78783 94.6195 1.97377C94.5476 2.15256 94.4756 2.34208 94.4037 2.54233C94.3318 2.74257 94.2418 2.92852 94.1339 3.10016C94.026 3.2718 93.8498 3.42556 93.6052 3.56144C93.3679 3.69017 93.0657 3.77241 92.6989 3.80817Z" fill="white"/>
<path d="M79.0241 6.70471L83.9443 0.1073H85.8218V7.61654H84.5809V1.12641L79.7578 7.61654H77.7725V0.1073H79.0241V6.70471Z" fill="white"/>
<path d="M73.4466 1.79152C74.0724 2.24922 74.3853 2.93936 74.3853 3.86192C74.3853 4.78449 74.0724 5.47462 73.4466 5.93233C72.828 6.39003 71.8857 6.63319 70.6196 6.6618V7.61654H69.4543V6.6618C68.1811 6.62604 67.228 6.3793 66.595 5.9216C65.9692 5.46389 65.6562 4.77733 65.6562 3.86192C65.6562 2.94651 65.9692 2.25995 66.595 1.80224C67.228 1.34454 68.1811 1.0978 69.4543 1.06205V0.1073H70.6196V1.06205C71.8857 1.09065 72.828 1.33381 73.4466 1.79152ZM70.6196 2.01679V5.70705C72.3029 5.64984 73.1445 5.03479 73.1445 3.86192C73.1445 2.68905 72.3029 2.07401 70.6196 2.01679ZM69.4543 2.01679C67.7567 2.08116 66.9079 2.6962 66.9079 3.86192C66.9079 5.02764 67.7567 5.64268 69.4543 5.70705V2.01679Z" fill="white"/>
<path d="M63.1783 7.61654H61.7972L60.8693 5.74996H56.1109L55.1938 7.61654H53.8882L57.7294 0.1073H59.3479L63.1783 7.61654ZM58.4847 0.922589L56.618 4.73085H60.373L58.4847 0.922589Z" fill="white"/>
<path d="M49.5517 0.1073C50.4652 0.1073 51.1773 0.32185 51.6881 0.750949C52.1988 1.1729 52.4542 1.76648 52.4542 2.53171C52.4542 3.29694 52.1988 3.8941 51.6881 4.3232C51.1773 4.74515 50.4652 4.95613 49.5517 4.95613H46.196V7.61654H44.9443V0.1073H49.5517ZM46.196 3.92629H49.6596C50.1487 3.92629 50.5299 3.80471 50.8033 3.56155C51.0766 3.31124 51.2133 2.96796 51.2133 2.53171C51.2133 2.09546 51.0766 1.75576 50.8033 1.5126C50.5299 1.26229 50.1487 1.13714 49.6596 1.13714H46.196V3.92629Z" fill="white"/>
<path d="M41.7864 0.1073V1.13714H36.6828V7.61654H35.4312V0.1073H41.7864Z" fill="white"/>
<path d="M23.5777 1.06202C24.4625 0.354007 25.653 0 27.1492 0C28.6454 0 29.8359 0.354007 30.7206 1.06202C31.6054 1.77004 32.0478 2.72121 32.0478 3.91553C32.0478 5.0741 31.6054 6.00024 30.7206 6.69395C29.8359 7.38051 28.6454 7.72379 27.1492 7.72379C25.653 7.72379 24.4625 7.38051 23.5777 6.69395C22.6929 6.00024 22.2541 5.0741 22.2613 3.91553C22.2541 2.72121 22.6929 1.77004 23.5777 1.06202ZM30.807 3.91553C30.807 3.01442 30.4833 2.30999 29.8359 1.80222C29.1885 1.2873 28.2929 1.02984 27.1492 1.02984C26.0126 1.02984 25.1207 1.2873 24.4733 1.80222C23.8259 2.30999 23.5022 3.01442 23.5022 3.91553C23.5022 4.78088 23.8259 5.46029 24.4733 5.95376C25.1207 6.44722 26.0126 6.69395 27.1492 6.69395C28.2929 6.69395 29.1885 6.44722 29.8359 5.95376C30.4833 5.46029 30.807 4.78088 30.807 3.91553Z" fill="white"/>
<path d="M12.0607 6.70471L16.9809 0.1073H18.8584V7.61654H17.6175V1.12641L12.7944 7.61654H10.8091V0.1073H12.0607V6.70471Z" fill="white"/>
<path d="M1.25164 2.76772H4.60731C5.52086 2.76772 6.22941 2.98227 6.73294 3.41137C7.24366 3.83331 7.49902 4.4269 7.49902 5.19213C7.49902 5.95736 7.24366 6.55452 6.73294 6.98362C6.22941 7.40557 5.52086 7.61654 4.60731 7.61654H0V0.1073H6.35529V1.13714H1.25164V2.76772ZM1.25164 6.5867H4.70442C5.19357 6.5867 5.57481 6.46513 5.84816 6.22197C6.12151 5.97166 6.25818 5.62838 6.25818 5.19213C6.25818 4.75588 6.12151 4.41617 5.84816 4.17302C5.57481 3.92271 5.19357 3.79756 4.70442 3.79756H1.25164V6.5867Z" fill="white"/>
</svg>
